<svg xmlns="http://www.w3.org/2000/svg" viewBox="0 0 800 520" role="img" aria-labelledby="title">
  <title id="title">Rolled carpets</title>
  <rect width="800" height="520" fill="#f4f3f3"/>
  <rect x="74" y="96" width="652" height="328" rx="28" fill="#083335"/>
  <rect x="112" y="134" width="576" height="252" rx="18" fill="#dfba10"/>
  <path d="M150 176h500M150 226h500M150 276h500M150 326h500" stroke="#083335" stroke-width="16" stroke-linecap="round" opacity=".65"/>
  <path d="M196 134v252M304 134v252M412 134v252M520 134v252M628 134v252" stroke="#083335" stroke-width="12" stroke-linecap="round" opacity=".42"/>
  <circle cx="218" cy="260" r="54" fill="none" stroke="#083335" stroke-width="18"/>
  <circle cx="400" cy="260" r="54" fill="none" stroke="#083335" stroke-width="18"/>
  <circle cx="582" cy="260" r="54" fill="none" stroke="#083335" stroke-width="18"/>
  <path d="M112 424h576" stroke="#25aec3" stroke-width="26" stroke-linecap="round"/>
  <path d="M156 424c0-30 24-54 54-54h372c30 0 54 24 54 54" fill="none" stroke="#083335" stroke-width="28" stroke-linecap="round"/>
</svg>
